<svg xmlns="http://www.w3.org/2000/svg" xmlns:xlink="http://www.w3.org/1999/xlink" width="100" height="100" viewBox="0 0 270 92">
<defs>
<style>.
  a{fill:none;clip-rule:evenodd;}.b{clip-path:url(#a);}.c{fill:url(#b);}.d{fill:#363636;opacity:0.5;}.e{fill:#fff;}.f{fill:#212121;}.g{fill:url(#c);}
</style>
<clipPath id="a">
<path class="a" d="M30.872.359,77.325,20.011a4.5,4.5,0,0,1,2.724,3.658l4.12,38.121A4.49,4.49,0,0,1,82.052,66.1L41,91.329a4.532,4.532,0,0,1-5.323-.421L1.567,61.608a4.483,4.483,0,0,1-1.16-5.27L25,2.632A4.525,4.525,0,0,1,30.872.359Z" transform="translate(0 0)"/>
</clipPath>
<radialGradient id="b" cx="-0.002" cy="0.008" r="1.337" gradientTransform="translate(0 0) scale(1.105 1.015)" gradientUnits="objectBoundingBox">
<stop offset="0" stop-color="#4d81d5"/>
<stop offset="0.515" stop-color="#2764c7"/>
<stop offset="1" stop-color="#0047ba"/>
</radialGradient>
<radialGradient id="c" cx="0.109" cy="0.139" r="1.114" gradientTransform="translate(0.031) scale(0.939 1)" gradientUnits="objectBoundingBox">
<stop offset="0" stop-color="#4d81d5"/>
<stop offset="1" stop-color="#0047ba"/>
</radialGradient>
</defs>
<g transform="translate(-50 -30)">
<g transform="translate(152 30)">
<g transform="translate(0 0)">
<g class="b">
<rect class="c" width="85.804" height="94.415"/>
</g>
</g>
<path class="d" d="M78.425,103.038H72L67.684,122.6l-3.595-19.56H56.563l6.679,31.191h7.823l4.116-17.778,4.2,17.778h7.85L93.9,103.038H86.4L82.8,122.6Zm37.792,31.191v-.367a10.5,10.5,0,0,1-.992-4.886V118.721a7.493,7.493,0,0,0-2.661-5.934,10.626,10.626,0,0,0-7.049-2.165,12.132,12.132,0,0,0-7.341,2.095,6.474,6.474,0,0,0-2.874,5.461h7.265a2.271,2.271,0,0,1,2.581-2.539q2.783,0,2.779,3.2v1.223h-2.239A14.361,14.361,0,0,0,97.541,122a6.467,6.467,0,0,0-2.8,5.7,6.271,6.271,0,0,0,2.313,4.974,8.3,8.3,0,0,0,5.6,1.981,6.755,6.755,0,0,0,5.592-2.508,7.962,7.962,0,0,0,.692,2.08h7.273ZM102.7,128.907a2.059,2.059,0,0,1-.674-1.6q0-3.384,3.794-3.388h2.116v3.709a3.643,3.643,0,0,1-1.285,1.308,4.11,4.11,0,0,1-2.255.582,2.434,2.434,0,0,1-1.7-.612Z" transform="translate(-39.531 -72.15)"/>
<path class="e" d="M76.425,101.038H70L65.684,120.6l-3.595-19.56H54.563l6.679,31.191h7.823l4.116-17.778,4.2,17.778h7.85L91.9,101.038H84.4L80.8,120.6Zm37.792,31.191v-.367a10.5,10.5,0,0,1-.992-4.886V116.721a7.493,7.493,0,0,0-2.661-5.934,10.626,10.626,0,0,0-7.049-2.165,12.132,12.132,0,0,0-7.341,2.095,6.474,6.474,0,0,0-2.874,5.461h7.265a2.271,2.271,0,0,1,2.581-2.539q2.783,0,2.779,3.2v1.223h-2.239A14.361,14.361,0,0,0,95.541,120a6.467,6.467,0,0,0-2.8,5.7,6.271,6.271,0,0,0,2.313,4.973,8.3,8.3,0,0,0,5.6,1.981,6.755,6.755,0,0,0,5.592-2.508,7.963,7.963,0,0,0,.692,2.08h7.273ZM100.7,126.907a2.059,2.059,0,0,1-.674-1.6q0-3.384,3.794-3.388h2.116v3.709a3.643,3.643,0,0,1-1.285,1.308,4.11,4.11,0,0,1-2.255.582,2.434,2.434,0,0,1-1.7-.612Z" transform="translate(-38.134 -70.75)"/>
</g>
<g transform="translate(244.864 57.487)">
<g transform="translate(75.988 0)">
</g>
</g>
</g>
</svg>